<?xml version="1.0" encoding="UTF-8" standalone="no"?>
<svg
   xmlns:dc="http://purl.org/dc/elements/1.1/"
   xmlns:cc="http://creativecommons.org/ns#"
   xmlns:rdf="http://www.w3.org/1999/02/22-rdf-syntax-ns#"
   xmlns:svg="http://www.w3.org/2000/svg"
   xmlns="http://www.w3.org/2000/svg"
   xmlns:sodipodi="http://sodipodi.sourceforge.net/DTD/sodipodi-0.dtd"
   xmlns:inkscape="http://www.inkscape.org/namespaces/inkscape"
   width="157.21332"
   height="202.35561"
   id="svg14732"
   sodipodi:version="0.32"
   inkscape:version="1.0.2 (e86c870879, 2021-01-15)"
   sodipodi:docname="proteron.svg"
   inkscape:output_extension="org.inkscape.output.svg.inkscape"
   version="1.1">
  <defs
     id="defs14734">
    <filter
       height="2.6369298"
       y="-0.81846493"
       width="2.0440261"
       x="-0.52201307"
       id="filter7045"
       inkscape:collect="always">
      <feGaussianBlur
         id="feGaussianBlur7047"
         stdDeviation="19.730851"
         inkscape:collect="always" />
    </filter>
    <filter
       height="2.1743193"
       y="-0.58715963"
       width="1.7489753"
       x="-0.37448764"
       id="filter5357"
       inkscape:collect="always">
      <feGaussianBlur
         id="feGaussianBlur5359"
         stdDeviation="14.154741"
         inkscape:collect="always" />
    </filter>
    <filter
       y="-0.5"
       x="-0.5"
       width="2"
       height="2"
       id="filter">
      <feGaussianBlur
         id="feGaussianBlur7629"
         stdDeviation="5.0" />
    </filter>
    <clipPath
       id="clipPath">
      <path
         sodipodi:nodetypes="cccccccc"
         id="path7160"
         d="m 545.81179,784.32351 c -16.5255,-2.8142 -52.05117,10.4744 -49.07724,-18.1893 1.22135,-22.48212 1.85138,-44.69306 0.0977,-67.26281 13.18551,-3.34569 79.07883,0.76778 81.01146,1.36977 0.61051,-0.0827 -24.22074,28.40322 -24.64997,27.71724 -15.24438,-4.47636 -24.14939,1.9312 -25.02157,1.47942 0.66668,13.02193 -1.02404,41.16388 -1.781,40.69558 0.57666,-0.2371 20.39608,14.1194 19.42061,14.1901 z"
         style="fill:#440055;fill-rule:evenodd;stroke:none;stroke-width:0.600217px;stroke-linecap:butt;stroke-linejoin:miter;stroke-opacity:1" />
    </clipPath>
    <filter
       inkscape:collect="always"
       id="filter14680"
       x="-0.2965093"
       width="1.5930187"
       y="-0.2015821"
       height="1.4031641">
      <feGaussianBlur
         inkscape:collect="always"
         stdDeviation="14.682033"
         id="feGaussianBlur14682" />
    </filter>
    <inkscape:path-effect
       prop_scale="1"
       id="path-effect4215"
       effect="skeletal"
       is_visible="true"
       lpeversion="0"
       pattern="M 0,0 H 1"
       copytype="single_stretched"
       scale_y_rel="false"
       spacing="0"
       normal_offset="0"
       tang_offset="0"
       prop_units="false"
       vertical_pattern="false"
       hide_knot="false"
       fuse_tolerance="0" />
    <filter
       inkscape:collect="always"
       id="filter14670"
       x="-0.13472509"
       width="1.2694502"
       y="-0.31187537"
       height="1.6237508">
      <feGaussianBlur
         inkscape:collect="always"
         stdDeviation="4.2610319"
         id="feGaussianBlur14672" />
    </filter>
    <filter
       inkscape:collect="always"
       id="filter14575"
       x="-0.1455207"
       width="1.2910414"
       y="-0.11971244"
       height="1.2394249">
      <feGaussianBlur
         inkscape:collect="always"
         stdDeviation="7.0882876"
         id="feGaussianBlur14577" />
    </filter>
    <filter
       inkscape:collect="always"
       id="filter14728"
       x="-0.8115983"
       width="2.6231966"
       y="-0.33467305"
       height="1.6693461">
      <feGaussianBlur
         inkscape:collect="always"
         stdDeviation="30.676484"
         id="feGaussianBlur14730" />
    </filter>
    <inkscape:perspective
       sodipodi:type="inkscape:persp3d"
       inkscape:vp_x="0 : -358.90424 : 1"
       inkscape:vp_y="0 : 1066.6667 : 0"
       inkscape:vp_z="793.70078 : -358.90424 : 1"
       inkscape:persp3d-origin="396.85039 : -545.99085 : 1"
       id="perspective14740" />
    <inkscape:perspective
       id="perspective15336"
       inkscape:persp3d-origin="396.85039 : -545.99085 : 1"
       inkscape:vp_z="793.70078 : -358.90424 : 1"
       inkscape:vp_y="0 : 1066.6667 : 0"
       inkscape:vp_x="0 : -358.90424 : 1"
       sodipodi:type="inkscape:persp3d" />
    <inkscape:perspective
       id="perspective15357"
       inkscape:persp3d-origin="396.85039 : -545.99085 : 1"
       inkscape:vp_z="793.70078 : -358.90424 : 1"
       inkscape:vp_y="0 : 1066.6667 : 0"
       inkscape:vp_x="0 : -358.90424 : 1"
       sodipodi:type="inkscape:persp3d" />
  </defs>
  <sodipodi:namedview
     id="base"
     pagecolor="#ffffff"
     bordercolor="#666666"
     borderopacity="1.0"
     inkscape:pageopacity="0.0"
     inkscape:pageshadow="2"
     inkscape:zoom="0.7"
     inkscape:cx="257.80288"
     inkscape:cy="138.03004"
     inkscape:document-units="px"
     inkscape:current-layer="layer1"
     showgrid="false"
     inkscape:window-width="1848"
     inkscape:window-height="1016"
     inkscape:window-x="0"
     inkscape:window-y="0"
     inkscape:window-maximized="1"
     inkscape:document-rotation="0"
     units="px"
     fit-margin-left="4"
     fit-margin-right="8"
     fit-margin-top="-14"
     fit-margin-bottom="-60" />
  <metadata
     id="metadata14737">
    <rdf:RDF>
      <cc:Work
         rdf:about="">
        <dc:format>image/svg+xml</dc:format>
        <dc:type
           rdf:resource="http://purl.org/dc/dcmitype/StillImage" />
        <dc:title></dc:title>
        <cc:license
           rdf:resource="https://creativecommons.org/licenses/by/3.0/" />
        <dc:creator>
          <cc:Agent>
            <dc:title>enigmatic</dc:title>
          </cc:Agent>
        </dc:creator>
      </cc:Work>
    </rdf:RDF>
  </metadata>
  <g
     inkscape:label="Ebene 1"
     inkscape:groupmode="layer"
     id="layer1"
     transform="translate(-297.0339,-378.78291)">
    <path
       inkscape:path-effect="#path-effect4215"
       transform="rotate(90)"
       ry="15.659982"
       y="-371.71893"
       x="476.0325"
       height="61.806412"
       width="94.944572"
       id="rect4473"
       style="fill:#220b28;fill-opacity:1;stroke:none;stroke-width:3.19;stroke-miterlimit:4;stroke-dasharray:none;stroke-opacity:1"
       inkscape:export-filename="/home/brutkasten/Dokumente/naev/rect4653.png"
       inkscape:export-xdpi="90"
       inkscape:export-ydpi="90"
       sodipodi:type="rect"
       d="m 491.69248,-371.71893 h 63.62461 c 8.20469,0 15.65998,7.45529 15.65998,15.65998 v 30.48645 c 0,8.20469 -7.45529,15.65998 -15.65998,15.65998 h -63.62461 c -8.20468,0 -15.65997,-7.45528 -15.65998,-15.65997 l 0,-10e-6 v -30.48645 c 0,-8.20469 7.45529,-15.65998 15.65998,-15.65998 z" />
    <ellipse
       transform="matrix(0.2001094,0,0,0.4122241,211.7416,301.97545)"
       id="path5363"
       style="opacity:0.712575;fill:#4d4d4d;fill-opacity:1;stroke:none;stroke-width:3.19;stroke-miterlimit:4;stroke-dasharray:none;stroke-opacity:1;filter:url(#filter7045)"
       inkscape:export-filename="/home/brutkasten/Dokumente/naev/rect4653.png"
       inkscape:export-xdpi="90"
       inkscape:export-ydpi="90"
       cx="538.92859"
       cy="532.7193"
       rx="45.357143"
       ry="109.99326" />
    <path
       inkscape:path-effect="#path-effect4215"
       transform="rotate(90)"
       ry="15.659982"
       y="-371.43994"
       x="475.94785"
       height="61.806412"
       width="94.944572"
       id="rect6133"
       style="fill:none;fill-opacity:1;stroke:#000000;stroke-width:3.19;stroke-miterlimit:4;stroke-dasharray:none;stroke-opacity:1"
       inkscape:export-filename="/home/brutkasten/Dokumente/naev/rect4653.png"
       inkscape:export-xdpi="90"
       inkscape:export-ydpi="90"
       sodipodi:type="rect"
       d="m 491.60783,-371.43994 h 63.62461 c 8.20469,0 15.65998,7.45529 15.65998,15.65998 v 30.48645 c 0,8.20469 -7.45529,15.65998 -15.65998,15.65998 h -63.62461 c -8.20469,0 -15.65998,-7.45528 -15.65998,-15.65997 l 0,-1e-5 v -30.48645 c 0,-8.20469 7.45529,-15.65998 15.65998,-15.65998 z" />
    <path
       inkscape:path-effect="#path-effect4215"
       transform="rotate(90)"
       ry="15.659982"
       y="-443.70331"
       x="387.77902"
       height="61.806412"
       width="94.944572"
       id="rect4471"
       style="fill:#280b22;fill-opacity:1;stroke:none;stroke-width:3.19;stroke-miterlimit:4;stroke-dasharray:none;stroke-opacity:1"
       inkscape:export-filename="/home/brutkasten/Dokumente/naev/rect4653.png"
       inkscape:export-xdpi="90"
       inkscape:export-ydpi="90"
       sodipodi:type="rect"
       d="m 403.439,-443.70331 h 63.62461 c 8.2047,0 15.65998,7.45529 15.65998,15.65998 v 30.48645 c 0,8.20469 -7.45528,15.65998 -15.65998,15.65998 H 403.439 c -8.20468,0 -15.65997,-7.45528 -15.65998,-15.65996 l 0,-2e-5 v -30.48645 c 0,-8.20469 7.45529,-15.65998 15.65998,-15.65998 z" />
    <path
       inkscape:path-effect="#path-effect4215"
       transform="rotate(90)"
       ry="15.659982"
       y="-444.65222"
       x="388.11758"
       height="61.806412"
       width="94.944572"
       id="rect5365"
       style="fill:none;fill-opacity:1;stroke:#000000;stroke-width:3.19;stroke-miterlimit:4;stroke-dasharray:none;stroke-opacity:1"
       inkscape:export-filename="/home/brutkasten/Dokumente/naev/rect4653.png"
       inkscape:export-xdpi="90"
       inkscape:export-ydpi="90"
       sodipodi:type="rect"
       d="m 403.77757,-444.65222 h 63.6246 c 8.2047,0 15.65999,7.45529 15.65999,15.65998 v 30.48645 c 0,8.20469 -7.45529,15.65998 -15.65999,15.65998 h -63.6246 c -8.20469,0 -15.65998,-7.45528 -15.65999,-15.65997 l 0,-10e-6 v -30.48645 c 0,-8.20469 7.45529,-15.65998 15.65999,-15.65998 z" />
    <path
       inkscape:path-effect="#path-effect4215"
       transform="rotate(90)"
       ry="30.11042"
       y="-436.9433"
       x="395.00455"
       height="118.83904"
       width="174.80162"
       id="rect2518"
       style="fill:#aa00d4;fill-opacity:1;stroke:none;stroke-width:3.0284;stroke-miterlimit:4;stroke-dasharray:none;stroke-opacity:1"
       inkscape:export-filename="/home/brutkasten/Dokumente/naev/rect4653.png"
       inkscape:export-xdpi="90"
       inkscape:export-ydpi="90"
       sodipodi:type="rect"
       d="m 425.11497,-436.9433 h 114.58078 c 7.88773,0 15.73318,3.2223 21.31065,8.79977 l 0,10e-6 c 5.57747,5.57747 8.79977,13.42291 8.79977,21.31064 v 58.6182 l -10e-6,2e-5 c 0,7.88773 -3.2223,15.73317 -8.79976,21.31063 -5.57747,5.57747 -13.42292,8.79977 -21.31065,8.79977 H 425.11497 c -7.88773,0 -15.73318,-3.2223 -21.31065,-8.79977 -5.57747,-5.57746 -8.79977,-13.4229 -8.79977,-21.31062 0,-10e-6 0,-2e-5 0,-3e-5 v -58.6182 c 0,-7.88773 3.2223,-15.73318 8.79977,-21.31065 5.57747,-5.57747 13.42292,-8.79977 21.31065,-8.79977 z" />
    <ellipse
       transform="matrix(0.5106862,0,0,0.7473252,71.25998,20.012631)"
       id="path4655"
       style="opacity:0.538922;fill:#ffffff;fill-opacity:1;stroke:none;stroke-width:3.19;stroke-miterlimit:4;stroke-dasharray:none;stroke-opacity:1;filter:url(#filter5357)"
       inkscape:export-filename="/home/brutkasten/Dokumente/naev/rect4653.png"
       inkscape:export-xdpi="90"
       inkscape:export-ydpi="90"
       cx="538.92859"
       cy="532.7193"
       rx="45.357143"
       ry="28.928572" />
    <path
       inkscape:path-effect="#path-effect4215"
       transform="matrix(0,0.869928,-0.5511994,0,100.10873,-203.73406)"
       ry="30.11042"
       y="-591.7699"
       x="705.35217"
       height="118.83904"
       width="174.80162"
       id="rect14674"
       style="opacity:1;fill:#cc00ff;fill-opacity:1;stroke:none;stroke-width:3.0284;stroke-miterlimit:4;stroke-dasharray:none;stroke-opacity:1;filter:url(#filter14680)"
       inkscape:export-filename="/home/brutkasten/Dokumente/naev/rect4653.png"
       inkscape:export-xdpi="90"
       inkscape:export-ydpi="90"
       sodipodi:type="rect"
       d="m 735.46259,-591.7699 h 114.58078 c 7.88774,0 15.73318,3.2223 21.31065,8.79977 l 10e-6,1e-5 c 5.57747,5.57747 8.79976,13.42291 8.79976,21.31064 v 58.6182 l 0,2e-5 c 0,7.88773 -3.2223,15.73317 -8.79977,21.31063 -5.57747,5.57747 -13.42291,8.79978 -21.31065,8.79978 H 735.46259 c -7.88773,0 -15.73318,-3.22231 -21.31065,-8.79978 -5.57746,-5.57746 -8.79976,-13.42289 -8.79977,-21.31062 0,-1e-5 0,-2e-5 0,-3e-5 l 0,-58.6182 c 0,-7.88773 3.2223,-15.73318 8.79977,-21.31065 5.57747,-5.57747 13.42292,-8.79977 21.31065,-8.79977 z" />
    <g
       id="g14704"
       transform="matrix(1.055186,0,0,1.055186,-173.06042,-319.11054)"
       inkscape:export-filename="/home/brutkasten/Dokumente/naev/rect4653.png"
       inkscape:export-xdpi="90"
       inkscape:export-ydpi="90">
      <path
         transform="matrix(0.00526471,-0.3673456,0.3673456,0.00526471,31.125723,991.34662)"
         style="fill:#220b28;fill-opacity:1;fill-rule:evenodd;stroke:none;stroke-width:0.600217px;stroke-linecap:butt;stroke-linejoin:miter;stroke-opacity:1;filter:url(#filter14575)"
         d="m 532.55186,1443.0709 c -23.55306,-4.7388 -71.52707,15.7686 -66.93148,-30.6518 2.01841,-36.4217 3.1895,-72.4098 0.96265,-109.0055 18.86113,-5.2799 112.86287,2.0967 115.61402,3.0931 0.8724,-0.1276 -28.84778,36.9199 -29.45203,35.8038 -21.70415,-7.4187 -51.17036,2.7433 -52.40972,2.0018 0.79219,21.1107 3.26551,80.7485 2.19084,79.9817 0.82598,-0.3782 31.41891,18.6728 30.02572,18.7769 z"
         id="path14684"
         sodipodi:nodetypes="cccccccc" />
      <path
         style="fill:#22002b;fill-opacity:1;fill-rule:evenodd;stroke:none;stroke-width:0.600217px;stroke-linecap:butt;stroke-linejoin:miter;stroke-opacity:1"
         d="m 563.93641,803.75216 c -1.86472,8.62717 5.41604,26.35817 -11.61211,24.4256 -13.36871,-0.93318 -26.58258,-1.55285 -40.03753,-0.92749 -1.84029,-6.95636 1.36431,-41.44865 1.74486,-42.45402 -0.0423,-0.32114 13.41043,10.79147 12.99729,11.00757 -2.83948,7.93387 0.73831,18.81164 0.4594,19.26302 7.75918,-0.17987 29.67985,-0.77446 29.39242,-0.38372 -0.13454,-0.3054 7.02481,-11.44328 7.05567,-10.93096 z"
         id="path14686"
         sodipodi:nodetypes="cccccccc" />
      <path
         transform="rotate(-89.178907,544.54308,742.01716)"
         id="path14688"
         d="m 495.83055,758.30685 c -0.7507,-5.8501 0.78512,-16.5852 0.25027,-24.0052 -0.37157,-5.155 -0.29051,-5.3541 3.53242,-2.8954 1.82152,1.1715 3.32978,2.2459 5.08469,3.3745 1.74669,1.1235 2.72551,2.9749 4.27212,4.3135 1.63089,1.4117 3.07771,2.8721 4.50681,4.5166 1.17924,1.3569 2.20962,2.5283 3.56799,3.704 0.2766,0.2395 0.47994,0.5523 0.7199,0.8285 1.32318,1.5224 2.94768,2.7894 4.27212,4.3134 0.82556,0.95 1.7631,2.1417 2.39442,2.6883 2.20299,1.9066 9.49146,-0.2441 12.72943,-0.4774 0.58381,-0.0422 1.16761,-0.0843 1.75142,-0.1263 2.23163,-0.1608 4.39192,0.3436 6.6152,0.1833 1.2586,-0.0908 2.46008,0.0427 3.73756,-0.0493 1.19016,-0.0858 -2.00556,-2.61 -2.94274,-4.1891 -0.91391,-1.5401 -2.91313,-2.7268 -4.24055,-3.8756 -1.26012,-1.0908 -1.6835,-1.9701 -3.067,-2.8599 -0.0941,-0.0605 4.33147,-0.7525 4.56593,-0.7694 2.82989,-0.2039 5.56861,0.4789 8.38241,0.2761 2.05585,-0.1482 2.69416,0.6499 4.11431,2.1242 1.35329,1.4049 2.68692,3.1467 4.05317,4.3292 1.28756,1.1145 2.61099,2.4762 3.34905,3.7198 0.75099,1.2654 1.5233,2.3745 2.23864,3.5798 0.59936,1.0098 1.67573,2.4768 2.42599,3.1261 0.95604,0.8274 3.00741,1.3107 1.23666,1.8914 -2.00957,0.6592 -4.10803,-0.4564 -6.20889,-0.6527 -2.45909,-0.2298 -5.37142,-0.7132 -7.74141,-0.5423 -2.50231,0.1804 -5.17281,-0.5074 -7.72561,-0.3234 -2.52867,0.1823 -5.1459,-0.2893 -7.70985,-0.1044 -2.78601,0.2008 -5.66913,-0.0315 -8.56978,0.1775 -3.39644,0.2449 -6.88033,0.2759 -10.30542,0.5228 -2.46293,0.1775 -5.05778,-0.0756 -7.47513,0.0986 -2.09881,0.1513 -4.21227,0.0836 -6.36472,0.2388 -1.40475,0.1013 -2.86195,0.0942 -4.1912,-0.1381 -1.14797,-0.2006 -2.78952,0.2011 -3.94071,0.2842 -1.45952,0.1052 -2.91905,0.2104 -4.37857,0.3155 -0.68846,0.0496 1.01802,-1.1418 0.96839,-1.8303 -0.10141,-1.4069 -0.67531,0.6423 0.0927,-1.7673 z"
         style="fill:#22002b;fill-rule:evenodd;stroke:#000000;stroke-width:0.434581px;stroke-linecap:butt;stroke-linejoin:miter;stroke-opacity:1;filter:url(#filter14670)" />
      <path
         id="path14690"
         d="m 558.98423,788.07051 c -5.50935,0.62685 -15.57983,-0.96146 -22.56192,-0.55866 -4.8508,0.27985 -5.03689,0.20096 -2.67413,-3.35954 1.12573,-1.69647 2.15605,-3.0998 3.24058,-4.73424 1.07962,-1.62679 2.83313,-2.52195 4.11234,-3.95775 1.34893,-1.51406 2.74129,-2.85442 4.30637,-4.17564 1.29136,-1.09024 2.40644,-2.04302 3.52992,-3.30407 0.2288,-0.25679 0.52561,-0.44372 0.78842,-0.66556 1.44897,-1.22331 2.66184,-2.7333 4.11223,-3.95776 0.90414,-0.76325 2.03705,-1.6285 2.5593,-2.21458 1.822,-2.04517 -0.1015,-8.92543 -0.27727,-11.97233 -0.0317,-0.54935 -0.0635,-1.09871 -0.0951,-1.64807 -0.12112,-2.09993 0.38213,-4.12384 0.2614,-6.21593 -0.0683,-1.18433 0.0734,-2.31194 0.004,-3.51404 -0.0647,-1.11993 -2.48047,1.8501 -3.97755,2.70979 -1.45995,0.83836 -2.60247,2.70166 -3.70025,3.93399 -1.04227,1.16984 -1.87459,1.55597 -2.72964,2.8445 -0.0582,0.0876 -0.64897,-4.0818 -0.66171,-4.30242 -0.15357,-2.66289 0.52517,-5.22814 0.3724,-7.87589 -0.11159,-1.93454 0.64723,-2.52381 2.05222,-3.83891 1.3389,-1.25319 2.9942,-2.48337 4.12419,-3.75174 1.06494,-1.19531 2.36283,-2.42101 3.54176,-3.09805 1.1996,-0.68889 2.25259,-1.39994 3.39521,-2.05614 0.95738,-0.5498 2.35084,-1.54184 2.97128,-2.23835 0.7907,-0.88754 1.27259,-2.80936 1.79468,-1.137 0.59256,1.89791 -0.4844,3.85548 -0.69728,5.82767 -0.24911,2.3085 -0.74269,5.03963 -0.61404,7.26976 0.13587,2.35465 -0.54665,4.85571 -0.40805,7.25786 0.13731,2.37945 -0.3413,4.83334 -0.20206,7.24598 0.15125,2.62161 -0.10597,5.32866 0.0514,8.05814 0.18442,3.19602 0.16668,6.47135 0.35262,9.69433 0.1337,2.31759 -0.13923,4.75338 -0.008,7.02808 0.11391,1.97497 0.0218,3.96073 0.13872,5.98617 0.0763,1.32186 0.05,2.69154 -0.18624,3.93795 -0.20405,1.0764 0.1514,2.62491 0.21398,3.70816 0.0792,1.37339 0.15845,2.74679 0.23768,4.12019 0.0373,0.64782 -1.05968,-0.97235 -1.70747,-0.93496 -1.32394,0.0764 0.59464,0.64346 -1.66008,-0.11094 z"
         style="fill:#220b28;fill-rule:evenodd;stroke:none;stroke-width:0.408556px;stroke-linecap:butt;stroke-linejoin:miter;stroke-opacity:1" />
      <path
         transform="matrix(-0.00526471,0.3673456,0.3673456,0.00526471,39.462685,514.6019)"
         style="fill:#220b28;fill-opacity:1;fill-rule:evenodd;stroke:none;stroke-width:0.600217px;stroke-linecap:butt;stroke-linejoin:miter;stroke-opacity:1;filter:url(#filter14575)"
         d="m 532.55186,1443.0709 c -23.55306,-4.7388 -71.52707,15.7686 -66.93148,-30.6518 2.01841,-36.4217 3.1895,-72.4098 0.96265,-109.0055 18.86113,-5.2799 112.86287,2.0967 115.61402,3.0931 0.8724,-0.1276 -28.84778,36.9199 -29.45203,35.8038 -21.70415,-7.4187 -51.17036,2.7433 -52.40972,2.0018 0.79219,21.1107 3.26551,80.7485 2.19084,79.9817 0.82598,-0.3782 31.41891,18.6728 30.02572,18.7769 z"
         id="path14692"
         sodipodi:nodetypes="cccccccc" />
      <path
         style="fill:#22002b;fill-opacity:1;fill-rule:evenodd;stroke:none;stroke-width:0.600217px;stroke-linecap:butt;stroke-linejoin:miter;stroke-opacity:1"
         d="m 566.67851,717.38841 c -1.61672,-8.67706 6.16918,-26.19215 -10.90737,-24.74836 -13.38995,0.5497 -26.61616,0.79043 -40.04766,-0.22026 -2.03889,6.90076 0.17594,41.47072 0.52752,42.48658 -0.0515,0.3198 13.71417,-10.40273 13.3074,-10.63057 -2.61095,-8.01198 1.2771,-18.78275 1.01124,-19.24194 7.75085,0.40215 29.64547,1.6247 29.36935,1.22587 -0.14324,0.30144 6.69398,11.6399 6.73952,11.12868 z"
         id="path14694"
         sodipodi:nodetypes="cccccccc" />
    </g>
    <ellipse
       transform="matrix(0.2001094,0,0,0.6165629,223.80985,160.78603)"
       id="path14718"
       style="opacity:0.712575;fill:#ffffff;fill-opacity:1;stroke:none;stroke-width:3.19;stroke-miterlimit:4;stroke-dasharray:none;stroke-opacity:1;filter:url(#filter14728)"
       inkscape:export-filename="/home/brutkasten/Dokumente/naev/rect4653.png"
       inkscape:export-xdpi="90"
       inkscape:export-ydpi="90"
       cx="538.92859"
       cy="532.7193"
       rx="45.357143"
       ry="109.99326" />
    <path
       inkscape:path-effect="#path-effect4215"
       transform="rotate(90)"
       ry="30.170546"
       y="-437.25165"
       x="395.56076"
       height="119.07633"
       width="173.01862"
       id="rect4653"
       style="fill:none;fill-opacity:1;stroke:#000000;stroke-width:2.7911;stroke-miterlimit:4;stroke-dasharray:none;stroke-opacity:1"
       inkscape:export-xdpi="90"
       inkscape:export-ydpi="90"
       sodipodi:type="rect"
       d="m 425.73131,-437.25165 h 112.67752 c 7.90348,0 15.7646,3.22874 21.3532,8.81734 5.58861,5.58861 8.81734,13.44972 8.81735,21.35319 l 0,2e-5 v 58.73524 c 0,7.90348 -3.22874,15.7646 -8.81735,21.3532 -5.5886,5.58861 -13.44972,8.81734 -21.3532,8.81734 H 425.73131 c -7.90349,0 -15.7646,-3.22873 -21.35321,-8.81734 -5.5886,-5.5886 -8.81733,-13.4497 -8.81734,-21.35317 0,-1e-5 0,-2e-5 0,-3e-5 v -58.73524 c 0,-7.90349 3.22874,-15.7646 8.81734,-21.35321 5.58861,-5.5886 13.44972,-8.81734 21.35321,-8.81734 z" />
  </g>
</svg>
